# xmcd
#
# Track frame offsets:
#	150
#	11258
#	22201
#	34456
#	43966
#	54924
#	66579
#	79464
#	91802
#	102790
#	115255
#
# Disc length: 1743 seconds
#
# Revision: 1
# Processed by: cddbd v1.5.2PL0 Copyright (c) Steve Scherf et al.
# Submitted via: audiograbber 1.83.01
#
DISCID=9306cd0b
DTITLE=Tammy Wynette - Greatest Hits Vol II
DYEAR=1971
DGENRE=Country
TTITLE0=Good Lovin'
TTITLE1=Run, Woman, Run
TTITLE2=We Sure Can Love Each Other
TTITLE3=You Can't Hang On
TTITLE4=The Ways To Love A Man
TTITLE5=He Loves Me All The Way
TTITLE6=I'll See Him Through
TTITLE7=Still Around
TTITLE8=The Only Time I'm Really Me
TTITLE9=Our Last Night Together
TTITLE10=The Wonders You Perform
EXTD=This CD I created from one of my LP's
EXTT0=
EXTT1=
EXTT2=
EXTT3=
EXTT4=
EXTT5=
EXTT6=
EXTT7=
EXTT8=
EXTT9=
EXTT10=
PLAYORDER=
